<svg xmlns="http://www.w3.org/2000/svg" xmlns:xlink="http://www.w3.org/1999/xlink" width="21.999" height="22.617" viewBox="0 0 21.999 22.617"><defs><style>.a{fill:#2684ff;}.b{fill:url(#a);}.c{fill:url(#b);}</style><linearGradient id="a" x1="0.918" y1="0.403" x2="0.282" y2="0.816" gradientUnits="objectBoundingBox"><stop offset="0.18" stop-color="#0052cc"/><stop offset="1" stop-color="#2684ff"/></linearGradient><linearGradient id="b" x1="0.087" y1="-0.233" x2="0.722" y2="0.179" xlink:href="#a"/></defs><g transform="translate(0)"><path class="a" d="M6.993,18.635.263,11.941a.9.9,0,0,1,0-1.266L3.632,7.326,11,0l.949.943,9.787,9.732a.894.894,0,0,1,0,1.272L18.48,15.178l-.114.113L11,22.617Z"/><path class="b" d="M7.4,7.946A5.607,5.607,0,0,1,7.377,0L0,7.322l4.015,3.986Z" transform="translate(3.495)"/><path class="c" d="M3.382,0,0,3.351a5.59,5.59,0,0,1,0,7.957L7.4,3.98Z" transform="translate(10.897 11.308)"/></g></svg>