<svg xmlns="http://www.w3.org/2000/svg" viewBox="0 0 1024 1024"><path d="M887.662 320.871c-34.397 0-62.294 28.297-62.294 63.294V631.44c0 34.896 27.897 63.293 62.294 63.293s62.294-28.297 62.294-63.293V384.165c0-34.997-27.798-63.294-62.294-63.294zm-751.324 0c-34.397 0-62.294 28.297-62.294 63.294V631.44c0 34.896 27.897 63.293 62.294 63.293s62.294-28.297 62.294-63.293V384.165c0-34.997-27.897-63.294-62.294-63.294zm99.79 1.9v451.754c0 26.798 21.798 48.595 48.595 48.595h55.494v137.586c0 34.897 27.898 63.294 62.294 63.294s62.294-28.297 62.294-63.294V823.02h96.99v137.586c0 34.897 27.897 63.294 62.294 63.294s62.293-28.297 62.293-63.294V823.02h55.495c26.797 0 48.595-21.797 48.595-48.595V322.771H236.128zM643.387 88.695l51.195-74.293c3-4.4 2.3-10.199-1.7-12.999-4-2.7-9.7-1.4-12.699 3l-53.195 77.292C591.992 67.897 552.996 60.198 512 60.198s-79.992 7.699-114.988 21.497L343.817 4.503c-3-4.4-8.7-5.8-12.699-3-4 2.7-4.7 8.5-1.7 13l51.195 74.292c-81.391 37.896-138.486 109.789-145.785 193.78h554.344c-7.3-84.091-64.394-155.984-145.785-193.88zM395.112 205.883c-16.898 0-30.697-13.699-30.697-30.697 0-16.898 13.699-30.697 30.697-30.697 16.898 0 30.697 13.699 30.697 30.697-.1 16.898-13.799 30.697-30.697 30.697zm237.676 0c-16.899 0-30.697-13.699-30.697-30.697 0-16.898 13.698-30.697 30.697-30.697 16.898 0 30.697 13.699 30.697 30.697-.1 16.898-13.799 30.697-30.697 30.697z"/></svg>