<svg xmlns="http://www.w3.org/2000/svg" viewBox="0 0 1024 1024"><path d="M398 136v262H136V136h262m0-72H136c-39.8 0-72 32.2-72 72v262c0 39.8 32.2 72 72 72h262c39.8 0 72-32.2 72-72V136c0-39.8-32.2-72-72-72zm490 72v262H626V136h262m0-72H626c-39.8 0-72 32.2-72 72v262c0 39.8 32.2 72 72 72h262c39.8 0 72-32.2 72-72V136c0-39.8-32.2-72-72-72zM398 626v262H136V626h262m0-72H136c-39.8 0-72 32.2-72 72v262c0 39.8 32.2 72 72 72h262c39.8 0 72-32.2 72-72V626c0-39.8-32.2-72-72-72zm490 72v262H626V626h262m0-72H626c-39.8 0-72 32.2-72 72v262c0 39.8 32.2 72 72 72h262c39.8 0 72-32.2 72-72V626c0-39.8-32.2-72-72-72z"/></svg>