<svg xmlns="http://www.w3.org/2000/svg" viewBox="0 0 1024 1024"><path d="M398 64H136c-39.8 0-72 32.2-72 72v262c0 39.8 32.2 72 72 72h262c39.8 0 72-32.2 72-72V136c0-39.8-32.2-72-72-72zm490 0H626c-39.8 0-72 32.2-72 72v262c0 39.8 32.2 72 72 72h262c39.8 0 72-32.2 72-72V136c0-39.8-32.2-72-72-72zM398 554H136c-39.8 0-72 32.2-72 72v262c0 39.8 32.2 72 72 72h262c39.8 0 72-32.2 72-72V626c0-39.8-32.2-72-72-72zm490 0H626c-39.8 0-72 32.2-72 72v262c0 39.8 32.2 72 72 72h262c39.8 0 72-32.2 72-72V626c0-39.8-32.2-72-72-72z"/></svg>