<svg xmlns="http://www.w3.org/2000/svg" viewBox="0 0 1024 1024"><path d="M706 768h70c.5 0 1-.4 1-1V129c0-.5-.4-1-1-1h-70c-.5 0-1 .4-1 1v638c0 .6.4 1 1 1zm-172 56h-70c-.5 0-1 .4-1 1v70c0 .5.4 1 1 1h70c.5 0 1-.4 1-1v-70c0-.6-.4-1-1-1zm106 0h-70c-.5 0-1 .4-1 1v70c0 .5.4 1 1 1h70c.5 0 1-.4 1-1v-70c0-.6-.4-1-1-1zm-212 0H214c-.6 0-1 .4-1 1v70c0 .5.4 1 1 1h214c.6 0 1-.4 1-1v-70c0-.6-.4-1-1-1zm242-696h-34c-.5 0-1 .4-1 1v638c0 .5.4 1 1 1h34c.5 0 1-.4 1-1V129c0-.6-.4-1-1-1zm-457 1c0-.5-.4-1-1-1h-34c-.5 0-1 .4-1 1v638c0 .5.4 1 1 1h34c.5 0 1-.4 1-1V129zm810-1h-70c-.5 0-1 .4-1 1v766c0 .5.4 1 1 1h70c.5 0 1-.4 1-1V129c0-.5-.4-1-1-1zM916 824H676c-.6 0-1 .4-1 1v70c0 .5.4 1 1 1h240c.6 0 1-.4 1-1v-70c0-.6-.4-1-1-1zm0-696h-34c-.5 0-1 .4-1 1v638c0 .5.4 1 1 1h34c.5 0 1-.4 1-1V129c0-.6-.4-1-1-1zM108 768h34c.5 0 1-.4 1-1V129c0-.5-.4-1-1-1h-34c-.5 0-1 .4-1 1v638c0 .6.4 1 1 1zm246 0h34c.5 0 1-.4 1-1V129c0-.5-.4-1-1-1h-34c-.5 0-1 .4-1 1v638c0 .6.4 1 1 1zm70 0h70c.5 0 1-.4 1-1V129c0-.5-.4-1-1-1h-70c-.5 0-1 .4-1 1v638c0 .6.4 1 1 1zm106 0h70c.5 0 1-.4 1-1V129c0-.5-.4-1-1-1h-70c-.5 0-1 .4-1 1v638c0 .6.4 1 1 1zm282 0h34c.5 0 1-.4 1-1V129c0-.5-.4-1-1-1h-34c-.5 0-1 .4-1 1v638c0 .6.4 1 1 1zM71 128H1c-.5 0-1 .4-1 1v766c0 .5.4 1 1 1h70c.5 0 1-.4 1-1V129c0-.5-.4-1-1-1zm107 696h-70c-.5 0-1 .4-1 1v70c0 .5.4 1 1 1h70c.5 0 1-.4 1-1v-70c0-.6-.4-1-1-1zm70-56h70c.5 0 1-.4 1-1V129c0-.5-.4-1-1-1h-70c-.5 0-1 .4-1 1v638c0 .6.4 1 1 1z"/></svg>