<svg xmlns="http://www.w3.org/2000/svg" viewBox="0 0 1024 1024"><path d="M856.6 64H167.5c-21.3 0-38.7 17.5-38.7 38.8v818.3c0 21.4 17.4 38.9 38.7 38.9h689.1c21.3 0 38.7-17.5 38.7-38.9V102.8c-.1-21.4-17.4-38.8-38.7-38.8zm-38.7 818.3H206.1V141.7h611.7l.1 740.6zM323.7 486.1h377.5c21.3 0 38.7-17.4 38.7-38.7V262c0-21.3-17.4-38.7-38.7-38.7H323.7c-21.3 0-38.7 17.4-38.7 38.7v185.2c0 21.5 17.4 38.9 38.7 38.9zm38.6-185.4h300.2v107.9H362.3V300.7zM293 707h23.5v23.5c0 21.3 17.4 38.7 38.7 38.7 21.3 0 38.7-17.4 38.7-38.7V707h23.4c21.3 0 38.7-17.4 38.7-38.7 0-21.3-17.4-38.7-38.7-38.7h-23.4v-23.4c0-21.3-17.4-38.7-38.7-38.7-21.3 0-38.7 17.4-38.7 38.7v23.4H293c-21.3 0-38.7 17.4-38.7 38.7.1 21.3 17.5 38.7 38.7 38.7zm313.6-139.4c-21.3 0-38.7 17.4-38.7 38.7 0 21.3 17.4 38.7 38.7 38.7H731c21.3 0 38.7-17.4 38.7-38.7 0-21.3-17.4-38.7-38.7-38.7H606.6zM731 734.4H606.6c-21.3 0-38.7 17.4-38.7 38.7s17.4 38.7 38.7 38.7H731c21.3 0 38.7-17.4 38.7-38.7s-17.5-38.7-38.7-38.7z"/></svg>