<svg xmlns="http://www.w3.org/2000/svg" viewBox="0 0 1025 1024"><path d="M258.243 446.582L111.62 192.832C205.43 75.215 350.06 0 511.993 0c187.44 0 351.464 100.723 440.683 251.055H534.805c-7.5-.703-15.098-.996-22.695-.996-121.934-.118-224.746 83.613-253.867 196.523zM695.43 324.961h293.555c22.695 57.91 35.215 121.016 35.215 187.031 0 280.86-226.153 508.809-506.309 511.992l209.434-362.773c29.511-42.402 46.718-93.828 46.718-149.336 0-73.086-30-139.297-78.613-186.914zM326.055 511.992c0-102.617 83.418-186.035 186.035-186.035s186.055 83.418 186.055 186.035-83.418 186.055-186.055 186.055-186.035-83.418-186.035-186.055zm256.152 252.559l-146.523 253.945C188.926 981.602 0 768.946 0 511.992c0-91.21 23.907-176.933 65.723-251.054l209.14 362.167c41.915 89.22 132.52 151.036 237.344 151.036 24.2.02 47.598-3.38 70-9.59z"/></svg>