<svg xmlns="http://www.w3.org/2000/svg" viewBox="0 0 1024 1024"><path d="M888.5 63.5h-753c-39.8 0-72 32.2-72 72v753.1c0 39.8 32.2 72 72 72h753.1c39.8 0 72-32.2 72-72V135.5c-.1-39.8-32.4-72-72.1-72zM717.2 717.9c-7 7-16.2 10.5-25.4 10.5s-18.5-3.5-25.5-10.6L512 563 357.7 717.7c-7 7.1-16.3 10.6-25.5 10.6s-18.4-3.5-25.4-10.5c-14.1-14-14.1-36.8-.1-50.9L461.2 512 306.7 357.1c-14-14.1-14-36.9.1-50.9s36.9-14 50.9.1L512 461l154.3-154.7c14-14.1 36.8-14.1 50.9-.1s14.1 36.8 0 50.9L562.8 512l154.5 155c14 14.1 14 36.9-.1 50.9z"/></svg>