<svg xmlns="http://www.w3.org/2000/svg" viewBox="0 0 1024 1024"><path d="M717.2 306.2c-14.1-14-36.9-14-50.9.1L512 461 357.7 306.3c-14-14.1-36.8-14.1-50.9-.1s-14.1 36.8-.1 50.9L461.2 512 306.7 666.9c-14 14.1-14 36.9.1 50.9 7 7 16.2 10.5 25.4 10.5s18.5-3.5 25.5-10.6L512 563l154.3 154.8c7 7.1 16.3 10.6 25.5 10.6s18.4-3.5 25.4-10.5c14.1-14 14.1-36.8.1-50.9L562.8 512l154.4-154.9c14.1-14.1 14.1-36.9 0-50.9zm171.3-170.7v753.1h-753V135.5h753m0-72h-753c-39.8 0-72 32.2-72 72v753.1c0 39.8 32.2 72 72 72h753.1c39.8 0 72-32.2 72-72V135.5c-.1-39.8-32.4-72-72.1-72z"/></svg>