<svg xmlns="http://www.w3.org/2000/svg" viewBox="0 0 1024 1024"><path d="M888.5 63.5h-753c-39.8 0-72 32.2-72 72v753.1c0 39.8 32.2 72 72 72h753.1c39.8 0 72-32.2 72-72V135.5c-.1-39.8-32.4-72-72.1-72zm0 825.1h-753V135.5h753v753.1zM203.2 538.2c7 7 16.2 10.5 25.4 10.5s18.5-3.5 25.5-10.6l140.4-140.9c14-14 14-36.6.1-50.7L254.2 204.3c-14-14.1-36.8-14.3-50.9-.3-14.1 14-14.3 36.8-.3 50.9l115.3 116.8-115.2 115.6c-14 14.1-14 36.8.1 50.9zm179.4-25.9c0 19.9 16.1 36 35.9 36.1l198.9.3h.1c19.9 0 36-16.1 36-35.9 0-19.9-16.1-36-35.9-36.1l-198.9-.3h-.1c-19.8 0-35.9 16.1-36 35.9z"/></svg>