<svg xmlns="http://www.w3.org/2000/svg" viewBox="0 0 1024 1024"><path d="M250.5 465.9v90.9l67.9-45.4zm234.5-66V273.3L272.2 415.1l95.1 63.6zm267.1 15.2L539.3 273.3v126.6L657 478.7zM272.2 607.6L485 749.4V622.8L367.3 544zm267.1 15.2v126.6l212.8-141.8L657 544zm-27.1-175.7l-96.1 64.3 96.1 64.2 96-64.2zm0-446.8c-282.2 0-511 228.8-511 511s228.8 511 511 511 511-228.8 511-511S794.4.3 512.2.3zm315.9 607.3c0 1.2-.1 2.4-.2 3.6-.1.4-.2.8-.2 1.2-.1.8-.3 1.5-.5 2.3-.1.4-.3.9-.4 1.3-.2.7-.4 1.3-.7 2-.2.4-.4.9-.6 1.3l-.9 1.8c-.2.4-.5.8-.8 1.2-.4.6-.7 1.1-1.1 1.6l-.9 1.2c-.4.5-.9 1-1.3 1.5l-1.1 1.1c-.5.4-1 .9-1.5 1.3l-1.2.9c-.2.1-.3.2-.5.3l-289 192.6c-4.6 3-9.8 4.6-15.1 4.6-5.2 0-10.5-1.5-15.1-4.6L208.3 630.2c-.2-.1-.3-.2-.4-.3l-1.2-.9c-.5-.4-1-.8-1.5-1.3-.4-.3-.7-.7-1.1-1.1-.5-.5-.9-1-1.4-1.5l-.9-1.2c-.4-.5-.8-1.1-1.1-1.6-.3-.4-.5-.8-.8-1.2l-.9-1.8c-.2-.4-.4-.9-.6-1.3-.3-.7-.5-1.3-.7-2-.1-.4-.3-.9-.4-1.3-.2-.7-.3-1.5-.5-2.3-.1-.4-.2-.8-.2-1.2-.2-1.2-.2-2.4-.2-3.6V415.1c0-1.2.1-2.4.2-3.5.1-.4.2-.8.2-1.2.1-.8.3-1.5.5-2.3.1-.4.3-.9.4-1.3.2-.7.4-1.3.7-2 .2-.4.4-.9.6-1.3l.9-1.8c.2-.4.5-.8.8-1.3.4-.6.7-1.1 1.1-1.6l.9-1.2c.4-.5.9-1 1.4-1.5l1.1-1.1c.5-.4 1-.9 1.5-1.3l1.2-.9c.1-.1.3-.2.4-.3L497.1 200c9.1-6.1 21-6.1 30.1 0L816 392.5c.2.1.3.2.5.3l1.2.9c.5.4 1.1.8 1.5 1.3.4.3.7.7 1.1 1.1.5.5.9 1 1.3 1.5l.9 1.2c.4.5.8 1.1 1.1 1.6.3.4.5.8.8 1.3l.9 1.8c.2.4.4.9.6 1.3.3.7.5 1.3.7 2 .1.4.3.9.4 1.3.2.7.3 1.5.5 2.3.1.4.2.8.2 1.2.2 1.2.2 2.3.2 3.5v192.5zm-54.3-50.8v-90.9l-67.9 45.5z"/></svg>