<svg xmlns="http://www.w3.org/2000/svg" viewBox="0 0 1024 1024"><path d="M888.5 63.5h-753c-39.8 0-72 32.2-72 72v753.1c0 39.8 32.2 72 72 72h753.1c39.8 0 72-32.2 72-72V135.5c-.1-39.8-32.4-72-72.1-72zM228.6 548.7c-9.2 0-18.4-3.5-25.4-10.5-14.1-14-14.1-36.8-.1-50.9l115.2-115.6L203 254.9c-14-14.1-13.8-36.9.3-50.9 14.1-14 36.9-13.8 50.9.3l140.4 142.2c13.9 14.1 13.8 36.7-.1 50.7L254.1 538.1c-7 7.1-16.3 10.6-25.5 10.6zm388.9 0l-198.9-.3c-19.9 0-36-16.2-35.9-36.1 0-19.9 16.1-35.9 36-35.9h.1l198.9.3c19.9 0 36 16.2 35.9 36.1-.1 19.8-16.2 35.9-36.1 35.9z"/></svg>