<svg xmlns="http://www.w3.org/2000/svg" viewBox="0 0 1024 1024"><path d="M717.418 465.68L550.492 354.042V174.446l301.683 201.11-134.757 90.124zm69.249 46.323l96.338-64.434v128.856l-96.338-64.422zm-236.175 157.96l166.926-111.637 134.757 90.123-301.683 201.11V669.965zM306.57 558.327l166.926 111.638V849.56L171.825 648.45l134.745-90.124zm-69.249-46.323l-96.326 64.422V447.57l96.326 64.434zm236.175-157.96L306.57 465.68l-134.745-90.123 301.671-201.11v179.595zM512 603.08l-136.181-91.077L512 420.914l136.181 91.089L512 603.08zm447.348-234.27c-.205-1.098-.386-2.171-.675-3.233-.181-.64-.398-1.243-.604-1.87-.301-.942-.603-1.883-.99-2.812-.265-.628-.566-1.255-.856-1.87a34.089 34.089 0 0 1-1.315-2.558c-.35-.616-.724-1.195-1.098-1.786a38.633 38.633 0 0 1-2.944-3.994 34.776 34.776 0 0 1-1.919-2.088 44.984 44.984 0 0 1-1.532-1.508c-.7-.627-1.436-1.23-2.184-1.822-.58-.446-1.147-.905-1.75-1.315-.205-.157-.41-.338-.627-.483l-409.509-273a38.463 38.463 0 0 1-42.702 0L81.146 343.472c-.229.145-.422.326-.64.483-.603.41-1.17.869-1.749 1.315-.736.591-1.484 1.195-2.172 1.822-.53.483-1.037.99-1.532 1.508a34.984 34.984 0 0 1-1.93 2.088 38.633 38.633 0 0 1-2.944 3.994c-.375.591-.75 1.17-1.087 1.786a26.743 26.743 0 0 0-1.315 2.558c-.29.615-.604 1.242-.857 1.87-.374.929-.7 1.87-1.001 2.811-.206.628-.423 1.231-.592 1.87-.277 1.063-.482 2.136-.675 3.234-.097.556-.23 1.099-.314 1.654a38.87 38.87 0 0 1-.338 5.031v273.002c0 1.701.12 3.366.338 5.031.084.568.217 1.11.314 1.666.193 1.073.398 2.16.675 3.221.17.64.386 1.255.592 1.87.301.954.627 1.895 1.001 2.824.253.64.567 1.243.857 1.858.398.87.82 1.726 1.315 2.57a28.67 28.67 0 0 1 1.086 1.762c.519.809 1.05 1.58 1.629 2.353.422.58.857 1.122 1.315 1.665a34.775 34.775 0 0 1 1.93 2.076 29.88 29.88 0 0 1 1.533 1.496c.688.64 1.436 1.255 2.172 1.846.58.447 1.146.893 1.75 1.315.217.157.41.326.64.47l409.496 273.002a38.383 38.383 0 0 1 21.357 6.48 38.34 38.34 0 0 0 21.345-6.48l409.509-273.001c.217-.145.422-.314.627-.47.603-.423 1.17-.87 1.75-1.316a40.09 40.09 0 0 1 2.184-1.846c.519-.47 1.025-.99 1.532-1.496a34.566 34.566 0 0 1 1.919-2.076c.458-.543.893-1.086 1.315-1.665a38.35 38.35 0 0 0 1.629-2.353c.374-.567.748-1.158 1.098-1.762.483-.844.905-1.7 1.315-2.57.29-.615.591-1.218.857-1.858.386-.929.688-1.87.99-2.823.205-.616.422-1.231.603-1.87.29-1.063.47-2.149.675-3.222.097-.555.23-1.098.302-1.666.217-1.665.35-3.33.35-5.031V375.496c0-1.69-.133-3.366-.35-5.031-.072-.555-.205-1.098-.302-1.654z"/></svg>