<svg xmlns="http://www.w3.org/2000/svg" viewBox="0 0 1024 1024"><path d="M838 317.2c-4.3-17.9-10.2-35.4-17.5-52.2-17-39.2-41.3-74.4-72.4-104.7-30.9-30.1-67-53.8-107.1-70.4-41.6-17.1-85.7-25.8-131-25.8-45.2 0-89.3 8.7-130.9 25.8C339 106.4 303 130.1 272 160.3c-31 30.2-55.4 65.4-72.4 104.7-7.4 17-13.4 35-17.9 53.5-15.8 5.3-30.7 13-44.4 22.8-14.8 10.6-27.8 23.4-38.6 38.1C76 409.9 64 446.3 64 484.6c0 46.5 18.2 90.4 51.3 123.6 24.3 24.3 54.5 40.8 87.1 47.6 2.4.5 4.9.8 7.4.8 9.4 0 18.6-3.8 25.2-10.6 6.7-6.7 10.3-15.7 10.2-25.2l-1.5-227.1c0-68.9 27.6-133.7 77.6-182.5 50.4-49.1 117.4-76.1 188.6-76.1 71.2 0 138.2 27 188.6 76 50 48.8 77.6 113.6 77.6 182.5v236.8c0 68.9-27.6 133.7-77.6 182.5-21.2 20.7-45.3 37.5-71.8 50 1.2-7.2 1.7-14.5 1.6-21.9-.7-29.9-12.7-58.1-33.9-79.4-21.2-21.3-49.3-33.5-79.2-34.3h-3c-31 0-60.2 12.1-82.2 34.1s-34.1 51.2-34.1 82.2c0 30.6 11.8 59.6 33.4 81.5 21.5 21.9 50.1 34.2 80.7 34.8H515.2c43.7-.6 86.1-9.3 125.9-25.8 40.1-16.5 76.1-40.2 107.1-70.4 31-30.2 55.4-65.4 72.4-104.7 15.2-35.1 24-72.3 26.2-110.7 23.2-8.7 44.1-22.3 62-40.3 33.1-33.1 51.3-77 51.3-123.5-.1-77.2-50-145.3-122.1-167.3zM81.7 540.7c.9 2.5 1.9 5.1 2.9 7.6-1-2.5-2-5-2.9-7.6zm9.9 22.2c1.7 3.1 3.5 6.2 5.3 9.2-1.8-3-3.6-6-5.3-9.2zm68.3.7c-1-1-2-2-2.9-3 .9 1 1.9 2 2.9 3l2.4 2.4-2.4-2.4zm12.9.9c-2.5-2.1-4.9-4.3-7.2-6.6-19.7-19.7-30.6-45.8-30.6-73.3 0-18.5 4.8-36.7 13.8-52.6 6.2-11 14.4-20.7 24-28.6v161.1zm8 15.6c-.9-.6-1.9-1.2-2.8-1.8.9.7 1.9 1.3 2.8 1.8zm7.6-255.4c1-4.3 2.1-8.6 3.2-12.9-1.2 4.3-2.3 8.6-3.2 12.9zm15.7 323.2c-3.4-.7-6.7-1.5-10-2.4 3.3.8 6.6 1.7 10 2.4l1.5.3-1.5-.3zm5.7.6h-.5.9-.4zm27.4-26.2v-1.5l-1.5-227.1 1.5 227.1c.1.5.1 1 0 1.5zm70-482c3.3-2.5 6.6-5 10-7.3-3.3 2.3-6.7 4.7-10 7.3zm74.9-43c-20.4 8.4-39.7 18.7-57.8 30.8 18.1-12.1 37.4-22.4 57.8-30.8 1.5-.6 3.1-1.2 4.6-1.8-1.6.5-3.1 1.1-4.6 1.8zm59.4 38.1c2.6-.6 5.2-1.3 7.8-1.8-2.5.6-5.2 1.2-7.8 1.8zm301 30.6c-30.2-29.5-65.5-52.6-104.6-68.7-1.5-.6-3.1-1.2-4.6-1.8 1.5.6 3.1 1.2 4.6 1.8 39.1 16.1 74.3 39.2 104.6 68.7 1.9 1.8 3.8 3.7 5.6 5.6l-5.6-5.6zm11.5 11.8c3.2 3.4 6.3 6.9 9.3 10.4-3-3.5-6.1-7-9.3-10.4zm10.8 12.3c2.7 3.2 5.3 6.5 7.9 9.8-2.5-3.3-5.2-6.6-7.9-9.8zm-361 653.5v-2.8 2.8zm108.3-108.3h2.8-2.8zm32.4 140c-8.2 8.4-19.1 13.3-30.8 13.7h-2.2c-24.6-.3-44.7-20.6-44.7-45.3 0-25 20.3-45.3 45.3-45.3 25 0 45.3 20.3 45.3 45.3-.1 11.8-4.6 23.1-12.9 31.6zm20.3-23.6c.4-2.6.6-5.3.6-8 0-.9 0-1.8-.1-2.7 0 .9.1 1.8.1 2.7 0 2.7-.2 5.4-.6 8zm50.3 25l.9-3-.9 3c1.5-.6 3.1-1.3 4.6-1.9-1.5.7-3 1.3-4.6 1.9zM742.5 858c-2 2-4.1 3.9-6.1 5.8 2-1.9 4.1-3.9 6.1-5.8 1.9-1.8 3.8-3.7 5.6-5.6l-5.6 5.6zm41.6-227.6V393.6c0-1.9 0-3.9-.1-5.8 0 1.9.1 3.9.1 5.8v236.8zm29 125.4c-2.1 4.8-4.3 9.5-6.6 14.2 2.4-4.7 4.6-9.4 6.6-14.2.7-1.7 1.5-3.4 2.2-5.1-.7 1.7-1.4 3.4-2.2 5.1zm0-487.6c-2.1-4.8-4.3-9.5-6.6-14.2 2.4 4.7 4.6 9.4 6.6 14.2 1 2.2 1.9 4.5 2.8 6.8-.8-2.3-1.8-4.6-2.8-6.8zm18.2 55.3c-.5-2.1-1-4.1-1.5-6.1.5 2 1 4.1 1.5 6.1zm7.8 62.1c4 2.2 7.9 4.6 11.6 7.3-3.7-2.7-7.6-5.1-11.6-7.3zm25 178c-7.6 7.6-16 13.9-24.9 18.9 8.9-5 17.3-11.4 24.9-18.9.5-.5.9-1 1.4-1.4-.5.4-.9.9-1.4 1.4zm-5.7-5.7c-3.6 3.6-7.3 6.8-11.3 9.8V400.2c10.7 8 19.9 18.1 26.9 29.9 9.8 16.4 14.9 35.2 14.9 54.5.1 27.6-10.8 53.6-30.5 73.3zM945 436.1c-.7-2.2-1.3-4.4-2.1-6.5.7 2.1 1.4 4.3 2.1 6.5zm-9.8-25.3c1 2 1.9 4.1 2.8 6.1-.9-2.1-1.9-4.1-2.8-6.1zm7.4 128.8c.8-2.2 1.5-4.5 2.2-6.7-.6 2.3-1.4 4.5-2.2 6.7z"/></svg>