<svg xmlns="http://www.w3.org/2000/svg" viewBox="0 0 1024 1024"><path d="M178.086 945.957c-1.094-.39-2.207-.898-3.3-1.406 1.21.508 2.206 1.015 3.3 1.406zm-8.574-4.082c-1.504-.898-2.989-1.797-4.395-2.793 1.387.996 2.89 1.895 4.395 2.793zM950.39 203.437c-6.797-6.796-16.68-10.585-26.27-10.585H739.746V135.41c0-38.847-31.562-70.41-70.41-70.41H354.609c-38.847 0-70.41 31.563-70.41 70.41v57.442H98.887c-19.668 0-35.762 15.976-35.762 35.761s15.977 35.762 35.762 35.762h31.562v622.363c0 38.848 31.563 70.41 70.41 70.41h632.266c38.848 0 70.41-31.562 70.41-70.41V264.375h20.567c19.668 0 36.757-15.977 36.757-35.762.02-9.492-3.672-18.379-10.468-25.175zm-595.899-67.812h314.531v57.832h-314.53v-57.832zm478.535 751.016H200.86V264.375H833.008v622.266zM511.504 384.219c-19.883 0-35.957 16.074-35.957 35.957v333.613c0 19.883 16.074 35.957 35.957 35.957s35.957-16.074 35.957-35.957V420.176c0-19.863-16.074-35.957-35.957-35.957zm-194.766 0c-19.883 0-35.957 16.074-35.957 35.957v333.613c0 19.883 16.074 35.957 35.957 35.957s35.957-16.074 35.957-35.957V420.176c0-19.863-16.093-35.957-35.957-35.957zm387.54 0c-19.883 0-35.958 16.074-35.958 35.957v333.613c0 19.883 16.075 35.957 35.957 35.957s35.957-16.074 35.957-35.957V420.176c0-19.863-16.074-35.957-35.957-35.957z"/></svg>