<svg xmlns="http://www.w3.org/2000/svg" viewBox="0 0 1024 1024"><path d="M960 543.6v-44l-3.9-5.1c-3.9-15.9-10.5-31-19.7-44.6 2.8-9.6 4.4-19.5 4.9-29.6.8-26.8-6.9-52.5-23.1-76.6 2.3-7.9 3.8-16.1 4.4-24.3 1.8-28.7-5.8-56.6-22.7-83.1 3.2-15.1 4-30.6 2.6-45.9-4.2-55.5-38.8-99.2-92.4-116.8-25.7-8.4-50.8-9.8-72-9.8h-93.9c-33.2 0-66.9.2-100.7.2-53 0-106.3-.2-159.2-.2H136c-39.8 0-72 32.2-72 72v368c0 39.8 32.2 72 72 72h113.2s55.9 6.4 82.4 48.5c18.3 29.3 36 60.2 53.1 90 7.2 12.6 14.7 25.4 22 38.1 1.8 3 2.6 6.4 2.2 9.9-.9 20.7-1.3 41.6-1.7 61.7-.2 11.9-.5 24.2-.8 36.2-1 36.2 16.8 65.7 49.9 83.1 21 11 43.2 16.5 65.8 16.5 19.5 0 39.3-4.1 58.9-12.3 25.5-10.7 43.5-29.8 53.7-56.8 3-7.9 6-15.8 9-23.6 8.2-21.3 16.6-43.4 24.2-65.6 12.3-35.7 13.9-74.9 5.1-119.8-2.6-13.4-4.9-26.8-7.1-40.8h21.6c21.1 0 42.5.1 64.1.1 29.2 0 58.7 0 87.9-.2h.8c16.8 0 33.5-2.7 49.5-8.1 23.6-8.4 54.3-28.4 66.6-76.7.3-1 .7-2.5 1.2-4l.9-3 1.5-5.4zM248 504H136V136h112v368zm640 28.8c0 1.5-1 3.5-1.6 5.6-4.6 18.1-12.5 23.5-20.4 26.4-8.4 2.8-17.1 4.2-25.9 4.2h-.4l-1-.2c-31 .2-61.5.3-87.3.3h-32.3c-10.7 0-21.2-.1-31.8-.1H581.1l13.6 83.6c2.6 15.9 4.9 29.4 7.6 43.1 6.3 32.2 5.5 59.1-2.5 82.5-7 20.2-14.4 39.8-23.4 63.3-3.1 8-6.1 16.1-9.1 24-3.6 9.6-8.1 13.1-14.1 15.7-10.7 4.5-21.1 6.7-31.1 6.7-11.1 0-21.7-2.7-32.4-8.3-3.1-1.6-7.3-4.3-9.4-7.7-.5-.8-2.1-3.4-1.9-9.6.3-11.5.6-23 .8-36.8v-1.7c.4-18.8.8-38.3 1.5-57.2 1.2-17.7-2.9-35-11.9-50.3-2.6-4.4-5.1-8.9-7.7-13.3-4.6-8-9.4-16.2-13.9-24.2l-.2-.2-.7-1.1c-17.2-30-35-61-53.7-91l-.2-.4c-16.6-26.3-41.1-47.7-71.5-62.4l-.6-387.7h63.9c55.7 0 111.9.3 159.4.3 17 0 34-.1 50.8-.1 16.7 0 33.3-.2 49.9-.2h93.9c16.2 0 33.5.9 49.7 6.2 13 4.2 23.3 11.3 30.6 20.5 7.2 9.1 11.3 20.2 12.3 33.3v.6l.1.6c.8 8.2.3 16.3-1.4 24.3l-.8 3.4-5.3 25.2 15.8 25c8.5 13.4 12.3 26.3 11.6 39.4-.2 3-.8 6-1.6 8.9l-9.5 32.3 18.8 28c7.6 11.3 11.1 22 10.9 33.5-.3 4.3-1 8.6-2.2 12.7l-9.3 32.4 18.9 27.9c4.4 6.4 7.5 13.5 9.3 21.1l1.9 7.8v13.7z"/></svg>