<svg xmlns="http://www.w3.org/2000/svg" viewBox="0 0 1024 1024"><path d="M431 879.4c-15.1-18.8-12.1-46.3 6.7-61.4l381.5-306.9-379.6-305c-18.8-15.1-21.8-42.6-6.7-61.4 15.1-18.8 42.6-21.8 61.4-6.7l422 339.1c10.3 8.2 16.3 20.8 16.3 34 0 13.3-6 25.8-16.3 34.1L492.5 886.1c-8.1 6.4-17.8 9.6-27.4 9.6-12.8 0-25.4-5.6-34.1-16.3zm-330 0c-15.1-18.8-12.1-46.3 6.7-61.4l381.5-306.9-379.6-305c-18.8-15.1-21.8-42.6-6.7-61.4 15.1-18.8 42.6-21.8 61.4-6.7l422 339.1c10.3 8.2 16.3 20.8 16.3 34 0 13.3-6 25.8-16.3 34.1L162.5 886.1c-8.1 6.4-17.8 9.6-27.4 9.6-12.8 0-25.4-5.6-34.1-16.3z"/></svg>