<svg xmlns="http://www.w3.org/2000/svg" viewBox="0 0 1024 1024"><path d="M888 64H135c-39.7 0-72 32.3-72 72v752c0 39.7 32.3 72 72 72h277c19.9 0 36-16.1 36-36s-16.1-36-36-36H135V136h753v752h-84c-19.9 0-36 16.1-36 36s16.1 36 36 36h84c39.7 0 72-32.3 72-72V136c0-39.7-32.3-72-72-72zM640 924c0 19.882 16.118 36 36 36s36-16.118 36-36-16.118-36-36-36-36 16.118-36 36zm36-540c-19.9 0-36 16.1-36 36v376c0 19.9 16.1 36 36 36s36-16.1 36-36V420c0-19.9-16.1-36-36-36zM540 256H228c-19.9 0-36 16.1-36 36s16.1 36 36 36h312c19.9 0 36-16.1 36-36s-16.1-36-36-36zM412 448H228c-19.9 0-36 16.1-36 36s16.1 36 36 36h184c19.9 0 36-16.1 36-36s-16.1-36-36-36zm0 192H228c-19.9 0-36 16.1-36 36s16.1 36 36 36h184c19.9 0 36-16.1 36-36s-16.1-36-36-36z"/></svg>