<svg xmlns="http://www.w3.org/2000/svg" viewBox="0 0 1024 1024"><path d="M838.1 566.2c-19.7 0-35.8 16-35.8 35.8v203.9c0 10.3-8.3 18.6-18.6 18.6h-567c-10.3 0-18.6-8.3-18.6-18.6V218.8c0-10.3 8.3-18.6 18.6-18.6h254.6c19.7 0 35.8-16 35.8-35.8s-16-35.8-35.8-35.8H216.8c-49.7 0-90.1 40.4-90.1 90.1v587.1c0 49.6 40.4 90 90.1 90h567.1c49.7 0 90.1-40.4 90.1-90.1V602c-.1-19.7-16.2-35.8-35.9-35.8zM464.3 356c-43 65-53.5 128.9-54.5 136-2.7 19.6 10.9 37.8 30.3 40.5 1.6.3 3.4.4 5.1.4 17.6 0 32.8-13.2 35.4-30.4.3-2.4 9.4-56.4 44.5-108.5 46.1-68.4 115.4-103.3 205.6-103.6 1.4.1 2.6.2 3.6.2 19.7 0 35.8-16 35.8-35.8v-42.1l100.5 95.6L770 392.1v-34.2c0-19.7-16-35.8-35.8-35.8-19.7 0-35.8 16-35.8 35.8v110.6c0 13.8 8.1 26.5 20.7 32.4 4.7 2.3 10 3.4 15.1 3.4 8.4 0 16.5-3 22.8-8.2l190.1-158.3c7.8-6.7 12.5-16.2 12.7-26.3.4-10.2-3.6-20.1-11-27.2l-190-180.9c-10.4-10-25.6-12.6-38.7-7-13.2 5.7-21.6 18.6-21.6 32.9v90.9C572.8 230.7 501.8 299.6 464.3 356z"/></svg>