<svg xmlns="http://www.w3.org/2000/svg" viewBox="0 0 1024 1024"><path d="M960 384.4V264c0-39.8-32.2-72-72-72H489l-25-77.9C454.5 84.2 426.8 64 395.4 64H72C32.2 64 0 96.2 0 136v688.3c0 3.5.3 7 .8 10.4 0 .1 0 .3.1.4.2 1 .3 2 .5 3 .1.3.1.6.2.8.2.8.4 1.7.6 2.5.1.5.3 1 .4 1.5l.3 1.2c.3 1.1.6 2.1 1 3.1v.1c3.7 10.8 9.9 20.4 18 28.2l.2.2c.8.7 1.5 1.4 2.3 2.1.4.3.8.7 1.1 1 .4.3.7.6 1.1.9.6.5 1.3 1 2 1.6.2.1.4.3.6.4.8.6 1.7 1.2 2.5 1.8.1 0 .1.1.2.1 9.4 6.3 20.4 10.6 32.5 11.8.2 0 .3 0 .5.1 1.1.1 2.1.2 3.2.2h.6c1.1 0 2.2.1 3.3.1h788c33 0 61.8-22.5 69.9-54.5l92-368c10.6-42.6-19.3-84.2-61.9-88.9zM72 136h323.2l41.2 128H888v120H164c-33 0-61.8 22.5-69.9 54.5L72 527.3V136zm788 688H72l92-368h788l-92 368z"/></svg>