<svg xmlns="http://www.w3.org/2000/svg" viewBox="0 0 1025 1024"><path d="M0 525.195c0 223.594 143.3 413.692 343.008 483.496 26.894 6.797 22.793-12.402 22.793-25.39v-88.692C210.508 912.813 204.297 810 193.809 792.91c-21.094-35.996-70.801-45.195-55.996-62.305 35.39-18.203 71.406 4.61 113.105 66.31 30.195 44.706 89.102 37.206 119.004 29.706 6.504-26.894 20.508-50.898 39.707-69.61-160.8-28.808-227.91-126.991-227.91-243.808 0-56.601 18.691-108.691 55.293-150.703-23.301-69.297 2.207-128.496 5.605-137.305 66.504-5.996 135.508 47.598 140.899 51.797 37.793-10.195 80.898-15.605 129.101-15.605 48.496 0 91.797 5.605 129.805 15.898 12.89-9.805 76.992-55.8 138.808-50.195 3.301 8.808 28.204 66.7 6.31 135 37.108 42.11 55.995 94.61 55.995 151.406 0 116.992-67.5 215.293-228.808 243.691 26.894 26.602 43.593 63.399 43.593 104.2v128.808c.899 10.293 0 20.508 17.207 20.508 202.598-68.3 348.496-259.805 348.496-485.41 0-282.91-229.296-511.992-511.992-511.992C229.101 13.203 0 242.305 0 525.195z"/></svg>