<svg xmlns="http://www.w3.org/2000/svg" viewBox="0 0 1024 1024"><path d="M.86 494.34c2.785-166.67 156.01-312.63 322.68-307.07 79.862-3.71 154.933 31.04 216.098 79.85-26.107 29.663-53.138 58.236-82.02 84.96-73.53-50.815-178.098-65.339-251.628-6.64-105.186 72.748-109.975 244.516-8.798 322.824 98.392 89.286 284.364 44.957 311.55-91.753-61.628-.924-123.42 0-185.047-2.004-.154-36.764-.308-73.53-.154-110.283 103.027-.309 206.055-.474 309.237.308 6.177 86.5-5.252 178.561-58.39 250.076-80.478 113.224-242.039 146.278-368.09 97.776C79.796 764.19-9.799 630.575.86 494.339zm832.875-122.958h91.907c.154 30.742.308 61.638.616 92.37 30.742.319 61.639.319 92.37.627v91.907c-30.731.308-61.473.462-92.37.77-.308 30.886-.462 61.628-.616 92.37H833.58c-.308-30.742-.308-61.484-.617-92.215-30.742-.309-61.627-.617-92.369-.925v-91.907c30.742-.308 61.473-.463 92.37-.628.153-30.885.462-61.627.77-92.369z"/></svg>