<svg xmlns="http://www.w3.org/2000/svg" viewBox="0 0 1024 1024"><path d="M932.4 442.2L560.3 84.1c-27.4-24.8-69.1-24.8-96.5 0L91.6 442.2c-14.8 13.3-15.9 36-2.6 50.8 13.3 14.8 36.1 15.9 50.8 2.6L512 137.5l372.2 358.1c14.8 13.3 37.5 12.2 50.8-2.6 13.3-14.8 12.2-37.5-2.6-50.8zM833 575c-19.9 0-36 16.1-36 36v277H654V648c0-39.8-32.2-72-72-72H442c-39.8 0-72 32.2-72 72v240H227V611c0-19.9-16.1-36-36-36s-36 16.1-36 36v277c0 39.8 32.2 72 72 72h570c39.8 0 72-32.2 72-72V611c0-19.9-16.1-36-36-36zm-391 73h140v240H442V648z"/></svg>