<svg xmlns="http://www.w3.org/2000/svg" viewBox="0 0 1024 1024"><path d="M512 72.929c59.342 0 116.886 11.588 171.033 34.466 52.349 22.178 99.303 53.848 139.763 94.208 40.361 40.36 72.13 87.415 94.208 139.764 22.978 54.247 34.567 111.79 34.567 171.133s-11.589 116.885-34.467 171.032c-22.178 52.35-53.847 99.304-94.208 139.764-40.36 40.36-87.414 72.13-139.763 94.208C628.886 940.482 571.342 952.07 512 952.07s-116.886-11.588-171.033-34.466c-52.349-22.178-99.303-53.848-139.763-94.208-40.361-40.36-72.13-87.415-94.208-139.764-22.978-54.247-34.567-111.79-34.567-171.132s11.589-116.886 34.467-171.033c22.178-52.35 53.847-99.303 94.208-139.764 40.36-40.36 87.414-72.13 139.763-94.208C395.114 84.517 452.658 72.929 512 72.929m0-71.93C229.476.999.5 229.975.5 512.499S229.476 1024 512 1024s511.5-228.976 511.5-511.5S794.524.999 512 .999zM331.177 511.5c0 9.99 4.096 19.481 11.388 26.275l235.57 220.784c14.486 13.587 37.264 12.888 50.85-1.598 13.587-14.486 12.888-37.264-1.598-50.85L419.79 511.5l207.497-194.51c14.486-13.587 15.186-36.365 1.599-50.85-13.587-14.487-36.365-15.186-50.85-1.6l-235.57 220.785c-7.193 6.694-11.29 16.184-11.29 26.174z"/></svg>