<svg xmlns="http://www.w3.org/2000/svg" viewBox="0 0 1024 1024"><path d="M112 224h800c26.5 0 48-21.5 48-48s-21.5-48-48-48H112c-26.5 0-48 21.5-48 48s21.5 48 48 48zm0 336h480c26.5 0 48-21.5 48-48s-21.5-48-48-48H112c-26.5 0-48 21.5-48 48s21.5 48 48 48zm669.3-204.4c-1.5-1.3-3.3-2-5.3-2-4.4 0-8 3.6-8 8v300.3c0 1.9.7 3.8 2 5.3 2.9 3.3 8 3.7 11.3.8l165.1-144c.5-.5 1.1-1 1.5-1.5 5.8-6.7 5.1-16.8-1.5-22.6L781.3 355.6zM912 800H112c-26.5 0-48 21.5-48 48s21.5 48 48 48h800c26.5 0 48-21.5 48-48s-21.5-48-48-48z"/></svg>