<svg xmlns="http://www.w3.org/2000/svg" viewBox="0 0 1024 1024"><path d="M292.021 424.959c-30.397 0-54.995 24.598-54.995 54.995s24.698 54.995 54.995 54.995c30.397 0 54.995-24.598 54.995-54.995s-24.598-54.995-54.995-54.995zm439.957 0c-30.397 0-54.995 24.598-54.995 54.995s24.698 54.995 54.995 54.995 54.895-24.598 54.995-54.995c0-30.397-24.698-54.995-54.995-54.995zm-219.978 0c-30.397 0-54.995 24.598-54.995 54.995s24.698 54.995 54.995 54.995 54.995-24.598 54.995-54.995-24.698-54.995-54.995-54.995zm471.354-133.088c-25.897-57.094-62.994-108.389-110.289-152.385-46.995-43.796-101.69-78.192-162.584-102.19C647.587 12.598 580.794 0 512 0c-68.793 0-135.587 12.599-198.481 37.296-60.894 23.998-115.589 58.394-162.584 102.19-47.195 43.996-84.292 95.191-110.289 152.385C13.749 351.265.05 414.359.05 479.353c0 116.889 45.096 228.678 127.188 316.269l23.098 196.581c1.4 11.999 8.699 22.498 19.498 27.897 5.1 2.6 10.699 3.9 16.198 3.9 6.099 0 12.299-1.6 17.798-4.7l148.286-84.292c51.395 15.798 105.09 23.798 159.784 23.798 68.793 0 135.587-12.599 198.481-37.296 60.894-23.998 115.589-58.394 162.584-102.19 47.195-43.996 84.292-95.191 110.289-152.385 26.997-59.394 40.596-122.388 40.596-187.482.1-65.094-13.599-128.187-40.496-187.582zM917.76 637.038c-21.998 48.395-53.495 91.991-93.791 129.487-40.396 37.596-87.491 67.193-139.986 87.891-54.495 21.498-112.389 32.297-172.083 32.297-52.295 0-103.59-8.399-152.185-24.998-9.799-3.3-20.498-2.3-29.397 2.8l-114.889 65.294-18.198-154.685c-.9-7.999-4.5-15.398-10.099-21.098-74.193-75.193-115.089-172.783-115.089-274.673 0-54.695 11.499-107.689 34.197-157.685 21.998-48.395 53.495-91.991 93.791-129.487 40.396-37.596 87.491-67.193 139.986-87.891C394.412 82.892 452.306 71.993 512 71.993s117.589 10.899 172.083 32.297c52.495 20.698 99.59 50.195 139.986 87.891 40.196 37.496 71.793 80.992 93.791 129.487 22.698 49.995 34.197 102.99 34.197 157.685-.1 54.695-11.599 107.689-34.297 157.685z"/></svg>