<svg xmlns="http://www.w3.org/2000/svg" viewBox="0 0 1024 1024"><path d="M886 128.2H134c-39.6 0-72 32.4-72 72v625.5c0 39.6 32.4 72 72 72h752c39.6 0 72-32.4 72-72V200.2c0-39.6-32.4-72-72-72zm0 697.3l-.1.1H134.2l-.1-.1V612.7l185.6-189.8L537 692.8c12 13.6 32.2 16.2 47.2 6l160.5-108.5L886 656.8v168.7zm0-259.3l-118.1-48.7c-12.3-9.4-29.2-9.9-42-1.2L570.1 621.4 348 346.2c-6.6-7.5-16.1-11.9-26.1-12.2-10-.3-19.7 3.7-26.7 10.8L134 509.7V200.3l.1-.1h751.7l.1.1.1 365.9zM696 274c-55.7 0-101 45.3-101 101s45.3 101 101 101 101-45.3 101-101-45.3-101-101-101zm0 130c-16 0-29-13-29-29s13-29 29-29 29 13 29 29-13 29-29 29z"/></svg>