<svg xmlns="http://www.w3.org/2000/svg" viewBox="0 0 1024 1024"><path d="M512 2C229.8 2 1 230.8 1 513s228.8 511 511 511 511-228.8 511-511S794.2 2 512 2zm310.4 821.4c-40.3 40.3-87.3 72-139.6 94.1-54 22.9-111.5 34.5-170.8 34.5s-116.8-11.6-170.9-34.5c-52.3-22.1-99.2-53.8-139.6-94.1-40.3-40.3-72-87.3-94.1-139.6C84.6 629.8 73 572.3 73 513s11.6-116.8 34.5-170.9c22.1-52.3 53.8-99.2 94.1-139.6 40.3-40.3 87.3-72 139.6-94.1C395.2 85.6 452.7 74 512 74s116.8 11.6 170.9 34.5c52.3 22.1 99.2 53.8 139.6 94.1 40.3 40.3 72 87.3 94.1 139.6 22.8 54 34.4 111.5 34.4 170.8s-11.6 116.8-34.5 170.9c-22.1 52.2-53.7 99.2-94.1 139.5zM711.6 499.3L420.7 251.8c-4.2-3.7-9.3-5.4-14.3-5.4-10.8 0-21 7.5-21 19v495.1c0 11.4 10.2 19 21 19 5 0 10.1-1.6 14.3-5.4l290.9-247.5c8.5-7.5 8.5-19.8 0-27.3z"/></svg>