<svg xmlns="http://www.w3.org/2000/svg" viewBox="0 0 1024 1024"><path d="M888 64H136c-39.8 0-72 32.2-72 72v752c0 39.8 32.2 72 72 72h752c39.8 0 72-32.2 72-72V136c0-39.8-32.2-72-72-72zm0 824H136V136h752v752zM420 740h312c19.9 0 36-16.1 36-36s-16.1-36-36-36H420c-19.9 0-36 16.1-36 36s16.1 36 36 36zm0-384h312c19.9 0 36-16.1 36-36s-16.1-36-36-36H420c-19.9 0-36 16.1-36 36s16.1 36 36 36zm0 192h312c19.9 0 36-16.1 36-36s-16.1-36-36-36H420c-19.9 0-36 16.1-36 36s16.1 36 36 36zM256 704a36 36 0 1 1 72 0 36 36 0 1 1-72 0zm0-384a36 36 0 1 1 72 0 36 36 0 1 1-72 0zm0 192a36 36 0 1 1 72 0 36 36 0 1 1-72 0z"/></svg>