<svg xmlns="http://www.w3.org/2000/svg" viewBox="0 0 1024 1024"><path d="M876 404.2h-63.2v102.4h-90.4V404.2H568.8V301.8h-51.2v-39.2h51.2v-51.2H620v-63.2h-51.2V97H403.2v63.2h102.4v39.2h-51.2v114.4h51.2v90.4h-51.2v51.3H364v-51.2h-63.2v51.2h-39.2v-51.2H147.2v51.2H96.1v63.2h63.2v-51.2h90.3v51.2h51.2v102.4H364V518.7h102.4v-51.3h192.8v39.2H505.6v63.2h51.2v102.5h114.4v-63.2H620v-39.3h204.8v-51.1H864v51.2h63.2v-63.2H876zM466.4 609h-63.2v165.6h51.2v39.2h-51.2V877h102.4v51.2h63.2V877H620v-63.2h-63.2V865h-39.2v-90.4H620v-63.2H466.4zM96.1 557.9h63.2v63.2H96.1v-63.2zM153.2 365h153.6c31.5 0 57.2-25.7 57.2-57.2V154.2c0-31.5-25.7-57.2-57.2-57.2H153.2C121.7 97 96 122.7 96 154.2v153.6c0 31.5 25.7 57.2 57.2 57.2zm6-63.2V160.2h141.6v141.6H159.2zm39.2-102.4h63.2v63.2h-63.2v-63.2zM870 97H716.4c-31.5 0-57.2 25.7-57.2 57.2v153.6c0 31.5 25.7 57.2 57.2 57.2H870c31.5 0 57.2-25.7 57.2-57.2V154.2c0-31.5-25.7-57.2-57.2-57.2zm-6 63.2v141.6H722.4V160.2H864zm-102.4 39.2h63.2v63.2h-63.2v-63.2zM870 660.2H716.4c-31.5 0-57.2 25.7-57.2 57.2V871c0 31.5 25.7 57.2 57.2 57.2H870c31.5 0 57.2-25.7 57.2-57.2V717.4c0-31.5-25.7-57.2-57.2-57.2zm-6 63.2V865H722.4V723.4H864zm-102.4 39.2h63.2v63.2h-63.2v-63.2zM306.8 660.2H153.2c-31.5 0-57.2 25.7-57.2 57.2V871c0 31.5 25.7 57.2 57.2 57.2h153.6c31.5 0 57.2-25.7 57.2-57.2V717.4c0-31.5-25.7-57.2-57.2-57.2zm-6 63.2V865H159.2V723.4h141.6zm-102.4 39.2h63.2v63.2h-63.2v-63.2z"/></svg>