<svg xmlns="http://www.w3.org/2000/svg" viewBox="0 0 1024 1024"><path d="M644.3 263.4c-39.2-41.2-94.5-64.7-151.9-64.7-54.3.1-105.3 21.3-143.7 59.8-38.4 38.4-59.5 89.5-59.5 143.8 0 19.9 16.1 36 36 36s36-16.1 36-36c0-72.4 58.9-131.5 131.3-131.6h.3c37.5 0 73.7 15.4 99.2 42.3 22.6 23.8 34.1 54 32.4 85.3-1.4 26.6-2.7 51.7-79.7 128.7-46.3 46.3-88.2 92.4-93.8 148.8-1.9 19.8 12.5 37.4 32.3 39.4 1.2.1 2.4.2 3.6.2 18.3 0 34-13.9 35.8-32.5 2.9-29.5 30.1-62 73-104.9 89.4-89.4 98.3-130.8 100.7-175.7 2.9-51.4-15.6-100.7-52-138.9zM442.8 815.8a43.2 43.2 0 1 0 86.4 0 43.2 43.2 0 1 0-86.4 0z"/></svg>