<svg xmlns="http://www.w3.org/2000/svg" viewBox="0 0 1024 1024"><path d="M954.168 504.138c-3.3-19.599-21.798-32.898-41.397-29.598-19.599 3.3-32.898 21.798-29.598 41.397 3.2 18.999 4.8 39.797 4.8 60.296 0 100.393-39.097 194.786-110.092 265.781S612.493 952.006 512 952.006c-100.393 0-194.886-39.097-265.881-110.092-70.995-70.995-110.092-165.488-110.092-265.881s39.097-194.886 110.092-265.881S411.607 200.06 512 200.06c4.2 0 8.399.1 12.599.2l-81.794 81.794c-14.099 14.099-14.099 36.897 0 50.896 14.099 14.099 36.897 14.099 50.896 0l135.79-135.79c14.099-14.099 14.099-36.897 0-50.896l-135.79-135.69c-14.099-14.099-36.897-14.099-50.896 0-14.099 14.099-14.099 36.897 0 50.896l66.595 66.595c-59.496.3-117.291 12.199-171.687 35.197-53.396 22.598-101.293 54.896-142.39 95.993-41.097 41.097-73.395 88.993-95.993 142.39-23.398 55.296-35.297 113.892-35.297 174.387S75.932 695.123 99.23 750.419c22.598 53.396 54.896 101.293 95.993 142.39 41.097 41.097 88.993 73.395 142.39 95.993 55.296 23.398 113.892 35.197 174.387 35.197s119.091-11.799 174.387-35.197c53.396-22.498 101.293-54.796 142.39-95.893 41.097-41.097 73.395-88.993 95.993-142.29 23.398-55.196 35.197-113.892 35.197-174.387 0-24.698-2-48.996-5.8-72.095z"/></svg>