<svg xmlns="http://www.w3.org/2000/svg" viewBox="0 0 1024 1024"><path d="M108.8 648.8H320l-232.1 232c-17.2 17.2-17.2 45 0 62.2 17.2 17.2 45 17.2 62.2 0l235.7-235.7v209.4c0 24.3 19.7 44 44 44s44-19.7 44-44v-312c0-24.3-19.7-44-44-44h-321c-24.3 0-44 19.7-44 44s19.7 44.1 44 44.1zm486-184h321c24.3 0 44-19.7 44-44s-19.7-44-44-44H704.7l232.1-232.1c17.2-17.2 17.2-45 0-62.2-8.6-8.6-19.9-12.9-31.1-12.9-11.3 0-22.5 4.3-31.1 12.9L638.8 318.2V108.8c0-24.3-19.7-44-44-44s-44 19.7-44 44v312c0 24.3 19.7 44 44 44z"/></svg>