<svg xmlns="http://www.w3.org/2000/svg" viewBox="0 0 1024 1024"><path d="M512 0C229.2 0 0 229.2 0 512s229.2 512 512 512 512-229.2 512-512S794.8 0 512 0zM254.2 442.4c-33.1 0-60-26.9-60-60s26.9-60 60-60 60 26.9 60 60-26.9 60-60 60zM512 765.5c-90.6 0-164.3-73.7-164.3-164.3 0-19.9 16.1-36 36-36s36 16.1 36 36c0 50.9 41.4 92.3 92.3 92.3s92.3-41.4 92.3-92.3c0-19.9 16.1-36 36-36s36 16.1 36 36c0 90.6-73.7 164.3-164.3 164.3zm257.5-323.1c-33.1 0-60-26.9-60-60s26.9-60 60-60 60 26.9 60 60-26.9 60-60 60z"/></svg>