<svg xmlns="http://www.w3.org/2000/svg" viewBox="0 0 1024 1024"><path d="M280.1 278.7c-45.9 0-83.2 37.3-83.2 83.2 0 45.9 37.3 83.2 83.2 83.2 45.8 0 83.1-37.4 83.1-83.3 0-45.8-37.3-83.1-83.1-83.1zm0 103.2c-11 0-20-9-20-20s9-20 20-20 20 9 20 20-9 20-20 20zM909.5 544l-359-362.4c-8-8.1-18.7-12.6-30.2-12.6H158c-34.2 0-62 27.5-62 61.4V454c0 11.2 4.4 21.7 12.4 29.7L467 838c11.8 11.5 27.3 17.9 43.8 17.9s32-6.3 43.8-17.9l28.3-28 28.3 28c11.8 11.5 27.3 17.9 43.8 17.9s32-6.4 43.8-17.9L909 630.3c24-23.6 24.2-62.3.5-86.3zm-144.7 86.3c11.7-11.4 18.1-26.7 18.2-43s-6.2-31.7-17.7-43.3L456.4 232.1h55.3L863 586.9 655 792.4l-27.2-26.8 137-135.3zM159.2 445V232.1h208.3l351.2 354.6-140.1 138.5-36.3 36.1-31.5 31.1L159.2 445z"/></svg>