<svg xmlns="http://www.w3.org/2000/svg" viewBox="0 0 1024 1024"><path d="M839.1 487.4c-19.9-19.9-42.5-35.6-67.5-46.9 29-15.3 53.8-37.5 72.4-64.9 22.7-33.4 34.7-72.4 34.7-113 0-110.9-90.2-201.1-201.1-201.1-42 0-82.2 12.8-116.3 37-29.7 21.1-52.9 49.4-67.5 82.4-38-40.9-90.9-64.2-147.3-64.2-110.9 0-201.1 90.2-201.1 201.1 0 40.5 12 79.5 34.7 112.9 18.6 27.4 43.4 49.6 72.4 65-25 11.3-47.7 27-67.5 46.9-43.3 43.3-67.2 100.7-67.2 161.6v164.7c0 50 40.7 90.8 90.8 90.8h276c36.4 0 69.3-22 83.5-55.2h247.7c50 0 90.8-40.7 90.8-90.8V648.9c-.3-60.9-24.1-118.3-67.5-161.5zM585.7 170.7c24.5-24.6 57.1-38.1 91.9-38.1 34.8 0 67.4 13.5 91.9 38.1 24.6 24.5 38.1 57.1 38.1 91.9S794 330 769.5 354.5c-24.5 24.6-57.1 38.1-91.9 38.1-34.8 0-67.4-13.5-91.9-38.1-24.6-24.5-38.1-57.1-38.1-91.9s13.5-67.4 38.1-91.9zM216.4 317.8c0-34.8 13.5-67.4 38.1-91.9 24.5-24.6 57.1-38.1 91.9-38.1 34.8 0 67.4 13.5 91.9 38.1 24.6 24.6 38.1 57.2 38.1 91.9 0 34.8-13.5 67.4-38.1 91.9-24.5 24.6-57.1 38.1-91.9 38.1-34.7 0-67.4-13.5-92-38.1-24.5-24.5-38-57.2-38-91.9zm287.6 551c0 5.2-2 10.1-5.8 13.8-3.7 3.7-8.6 5.8-13.8 5.8h-276c-10.8 0-19.6-8.8-19.6-19.6V704.1c0-41.9 16.4-81.4 46.3-111.3 29.9-29.9 69.4-46.3 111.3-46.3 41.9 0 81.4 16.4 111.3 46.3.5.5 1 1 1.3 1.4l.3.4c28.8 29.6 44.7 68.5 44.7 109.6v164.6zm-17.6-345.3c-14.3-11.2-29.7-20.5-46-27.9 39.7-21.1 71.5-55 89.8-96.1 15.4 16.5 33.4 30.4 53.3 40.9-25 11.3-47.7 27.1-67.5 46.9-11.1 11.2-21 23.3-29.6 36.2zm348.8 290.2c0 10.8-8.8 19.6-19.6 19.6H575.2V704.1c0-45.3-13.2-88.8-38.2-126.2 7.6-14.9 17.4-28.4 29.3-40.2 29.8-29.9 69.4-46.4 111.3-46.4 41.9 0 81.4 16.4 111.3 46.3 29.9 29.9 46.3 69.4 46.3 111.3v164.8z"/></svg>