<svg xmlns="http://www.w3.org/2000/svg" viewBox="0 0 1024 1024"><path d="M241.4 450.2v-29.7c0-39 7.3-77 21.8-113.1 14-34.7 33.9-65.6 58.9-91.9 24.8-26.1 53.2-46.6 84.6-60.8h.2l1.3-.5c32.7-14.9 67.6-22.4 103.7-22.4 35.9 0 70.9 7.6 103.8 22.2 31.9 14.4 60.9 35.1 86 61.4 17.5 18.5 40.4 59 53.1 83.1 6.2 11.8 18.4 19.1 31.7 19.1h13.7c18.1 0 30.7-18.3 23.9-35.2 0-.1-.1-.2-.1-.3-17.3-42.7-41.8-80.9-72.7-113.4-30.9-32.8-67.1-58.7-107.6-76.9-41.9-18.7-86.2-28.2-131.8-28.2-45.6 0-90 9.5-131.9 28.3-40.5 18.1-76.6 44-107.6 76.8-31.2 32.9-55.7 71.1-72.7 113.4C182 325.9 173 372.5 173 420.7v470.2c0 38.4 29.7 69.6 66.3 69.6h544.9c36.6 0 66.3-31.2 66.1-69.6l.2-376.6c0-35.4-28.6-64-64-64H241.4zm541.3 440.6c0 .6-.1 1.1-.2 1.4H241.6c-.1-.3-.2-.8-.2-1.4V518.4h541.3v372.4zM480.4 672v89.5c0 17.5 14.2 31.7 31.7 31.7s31.7-14.2 31.7-31.7v-89.7c16.8-10.8 26.9-29 26.9-49.2 0-32.4-26.3-58.7-58.7-58.7s-58.7 26.3-58.7 58.7c.1 19.9 10.4 38.7 27.1 49.4z"/></svg>