<svg xmlns="http://www.w3.org/2000/svg" viewBox="0 0 1024 1024"><path d="M722 575.6C661.6 536 589.5 513 512 513c-212.1 0-384 172.3-384 384.9h.1c0 .7-.1 1.3-.1 2 0 19.9 16.1 36.1 36 36.1s36-16.2 36-36.1c0-.7 0-1.3-.1-2h.1c0-172.7 139.7-312.7 312-312.7 39.2 0 76.7 7.2 111.2 20.5 29.4-17.2 62.9-27.9 98.8-30.1zm65 224l62.1-62.1c14.1-14.1 14.1-36.9 0-51-14.1-14.1-36.9-14.1-51 0L736 748.6l-62.1-62.1c-14.1-14.1-36.9-14.1-51 0-14.1 14.1-14.1 36.9 0 51l62.1 62.1-62.1 62.1c-14.1 14.1-14.1 36.9 0 51 14.1 14.1 36.9 14.1 51 0l62.1-62.1 62.1 62.1c14.1 14.1 36.9 14.1 51 0 14.1-14.1 14.1-36.9 0-51L787 799.6zm-51-511.1C736 164.5 635.7 64 512 64S288 164.5 288 288.5 388.3 513 512 513s224-100.5 224-224.5zM512 440.8c-83.9 0-152-68.2-152-152.3s68.1-152.3 152-152.3 152 68.2 152 152.3-68.1 152.3-152 152.3z"/></svg>