<svg xmlns="http://www.w3.org/2000/svg" viewBox="0 0 1024 1024"><path d="M1010.3 322.7c-7.2-6.2-16.3-9.7-25.8-9.7-6.5 0-12.9 1.6-18.6 4.7l-125.6 67V197.3c0-39.3-31.9-71.3-71-71.3H71c-39.1 0-71 32-71 71.3v629.4C0 866 31.9 898 71 898h698.4c39.1 0 71-32 71-71.3V624.2l122.9 78.4c6.4 4.1 13.7 6.2 21.2 6.2 9 0 17.9-3.2 25-8.9 9.2-7.6 14.5-19 14.5-31.3V353.4c0-12-5-23.2-13.7-30.7zM945 418.8v178.1l-103.2-65.8v-57.3l103.2-55zm-183.6-190V795c0 13-10.5 23.6-23.5 23.6H102.5C89.5 818.6 79 808 79 795V228.8c0-13 10.5-23.6 23.5-23.6h635.4c13 0 23.5 10.6 23.5 23.6z"/></svg>