<svg xmlns="http://www.w3.org/2000/svg" viewBox="0 0 1024 1024"><path d="M.79 658.523c.37 93.813 76.525 169.754 170.406 169.754H438.86l-24.64-97.416-229.692-49.963c-20.925-4.826-36.687-23.18-37.62-45.346-.08-.644-.08-246.855 0-247.482.933-22.183 16.695-40.537 37.62-45.363l229.691-49.963 24.64-97.384H171.197C77.317 195.36 1.16 271.254.79 365.067m1022.319 293.456c-.338 93.813-76.51 169.754-170.391 169.754H585.053l24.64-97.416 229.675-49.963c20.958-4.826 36.687-23.18 37.62-45.346.113-.644.113-246.855 0-247.482-.933-22.183-16.662-40.537-37.62-45.363l-229.675-49.963-24.64-97.384h267.665c93.88 0 170.053 75.894 170.39 169.707M414.214 523.972h195.481v-24.37H414.214z"/></svg>