<svg xmlns="http://www.w3.org/2000/svg" viewBox="0 0 1024 1024"><path d="M923 960H99c-19.9 0-36-16.1-36-36V100c0-19.9 16.1-36 36-36s36 16.1 36 36v788h788c19.9 0 36 16.1 36 36s-16.1 36-36 36zM264.2 373c-39.3.9-71.4 33.1-72.2 72.4-.6 30.1 16.7 56.2 42 68.3V799c0 17.7 14.3 32 32 32s32-14.3 32-32V513.7c24.8-11.9 42-37.3 42-66.7 0-41.5-34.1-75-75.8-74zm277.5-118c-39.3.9-71.4 33.1-72.2 72.4-.6 30.1 16.7 56.2 42 68.3V799c0 17.7 14.3 32 32 32s32-14.3 32-32V395.7c24.8-11.9 42-37.3 42-66.7 0-41.5-34.1-75-75.8-74zM895 458c0-41.5-34.1-75-75.8-74-39.3.9-71.4 33.1-72.2 72.4-.6 30.1 16.7 56.2 42 68.3V799c0 17.7 14.3 32 32 32s32-14.3 32-32V524.7c24.8-11.9 42-37.3 42-66.7z"/></svg>