<svg xmlns="http://www.w3.org/2000/svg" viewBox="0 0 1024 1024"><path d="M123.80000000000001 256.8a63 63 0 1 0 126 0 63 63 0 1 0-126 0zm731.9 29H357.9c-19.9 0-36.1-16.2-36.1-36.1 0-19.9 16.2-36.1 36.1-36.1h497.9c19.9 0 36.1 16.2 36.1 36.1-.1 20-16.2 36.1-36.2 36.1zM123.8 512a63 63 0 1 0 126 0 63 63 0 1 0-126 0zm731.9 29.1H357.9c-19.9 0-36.1-16.2-36.1-36.1 0-19.9 16.2-36.1 36.1-36.1h497.9c19.9 0 36.1 16.2 36.1 36.1-.1 19.9-16.2 36.1-36.2 36.1zM123.8 767.2a63 63 0 1 0 126 0 63 63 0 1 0-126 0zm731.9 29.1H357.9c-19.9 0-36.1-16.2-36.1-36.1 0-19.9 16.2-36.1 36.1-36.1h497.9c19.9 0 36.1 16.2 36.1 36.1-.1 20-16.2 36.1-36.2 36.1z"/></svg>