<svg xmlns="http://www.w3.org/2000/svg" viewBox="0 0 1024 1024"><path d="M899 237H730.7l-93.9-99.6-.4-.4c-6.7-6.2-16.4-9.7-26.7-9.7H413.9c-10.3 0-20 3.6-26.6 9.8l-.2.2-94.3 99.7H125c-34.9 0-63.3 28.4-63.3 63.3v531.9c0 34.9 28.4 63.3 63.3 63.3h774c34.9 0 63.3-28.4 63.3-63.3V300.3c0-34.9-28.4-63.3-63.3-63.3zm-471.2-37h168l34.8 37H392.9l34.9-37zm83.4 532.1c-95.9 0-173.9-78-173.9-173.9s78-173.9 173.9-173.9 173.9 78 173.9 173.9-78 173.9-173.9 173.9zm0-276.4c-27.4 0-53.1 10.7-72.5 30.1-19.4 19.4-30.1 45.1-30.1 72.5s10.7 53.1 30.1 72.5c19.4 19.4 45.1 30.1 72.5 30.1s53.1-10.7 72.5-30.1c19.4-19.4 30.1-45.1 30.1-72.5s-10.7-53.1-30.1-72.5c-19.3-19.5-45.1-30.1-72.5-30.1z"/></svg>