<svg xmlns="http://www.w3.org/2000/svg" viewBox="0 0 1024 1024"><path d="M558.9 895.7c-9.6 0-19.3-3.2-27.4-9.6L107.7 545.2c-10.3-8.3-16.3-20.8-16.3-34.1 0-13.2 6-25.8 16.3-34l422-339.1c18.8-15.1 46.3-12.1 61.4 6.7 15.1 18.8 12.1 46.3-6.7 61.4l-379.6 305L586.3 818c18.8 15.1 21.8 42.6 6.7 61.4-8.7 10.7-21.3 16.3-34.1 16.3zm330 0c-9.6 0-19.3-3.2-27.4-9.6L437.7 545.2c-10.3-8.3-16.3-20.8-16.3-34.1 0-13.2 6-25.8 16.3-34l422-339.1c18.8-15.1 46.3-12.1 61.4 6.7 15.1 18.8 12.1 46.3-6.7 61.4l-379.6 305L916.3 818c18.8 15.1 21.8 42.6 6.7 61.4-8.7 10.7-21.3 16.3-34.1 16.3z"/></svg>