<svg xmlns="http://www.w3.org/2000/svg" viewBox="0 0 1024 1024"><path d="M512 304.1c-72 0-130.5 58.5-130.5 130.5S440 565.1 512 565.1s130.5-58.5 130.5-130.5S584 304.1 512 304.1zm358.6-29.5c-20.3-40.7-49.1-77.3-85.7-108.9-36.3-31.3-78.1-55.9-124.4-73.2-47.7-17.8-97.6-26.8-148.4-26.8h-.2c-50.8 0-100.7 9-148.4 26.8-46.3 17.3-88.1 41.9-124.4 73.2-36.6 31.6-65.5 68.3-85.7 108.9-21.2 42.6-32 87.7-32 133.9 0 64.3 15.8 130.4 47 196.5 25.8 54.7 62.3 109.9 108.6 164.1 82.8 97 176 166.4 212.2 191.7 6.7 4.7 14.6 7.2 22.8 7.2 8.1 0 16-2.5 22.8-7.2C571 935.5 664.3 866.1 747 769.1c46.2-54.2 82.8-109.4 108.6-164.1 31.2-66.1 47-132.3 47-196.5 0-46.3-10.8-91.3-32-133.9zM654.8 577.3c-38.1 38.1-88.8 59.1-142.8 59.1s-104.6-21-142.8-59.1c-38.1-38.1-59.1-88.8-59.1-142.8s21-104.6 59.1-142.8c38.1-38.1 88.8-59.1 142.8-59.1 53.9 0 104.6 21 142.8 59.1 38.1 38.1 59.1 88.8 59.1 142.8s-21 104.7-59.1 142.8z"/></svg>