<svg xmlns="http://www.w3.org/2000/svg" viewBox="0 0 1024 1024"><path d="M801.2 299.6c-16-39.6-38.7-75-67.4-105.1-28.6-30.4-62.2-54.4-99.7-71.3-38.8-17.3-79.9-26.1-122.1-26.1-42.3 0-83.4 8.8-122.2 26.2-37.5 16.8-71 40.8-99.7 71.2-28.9 30.5-51.6 65.9-67.4 105.1C206.3 340.2 198 383.4 198 428v435.7c0 35.6 27.5 64.5 61.4 64.5h505c33.9 0 61.4-28.9 61.3-64.5V479.2l.2-17.7V428c0-44.4-8.3-87.6-24.7-128.4zm-386.8-118h.2l1.2-.5c30.3-13.8 62.6-20.8 96.1-20.8 33.3 0 65.7 7 96.2 20.6 29.6 13.3 56.4 32.5 79.7 56.9 23.4 24.7 41.7 53.4 54.6 85.3 13.4 33.2 20.2 68.4 20.2 104.9v27.4H261.2v-27.5c0-36.1 6.8-71.4 20.2-104.8 13-32.2 31.4-60.8 54.6-85.2 23-24.2 49.3-43.2 78.4-56.3zm348.4 337v345.1c0 .6-.1 1-.2 1.3H261.4c-.1-.3-.2-.7-.2-1.3V518.6h501.6zM482.7 660.9v82.9c0 16.2 13.2 29.4 29.4 29.4s29.4-13.2 29.4-29.4v-83.1c15.6-10 24.9-26.9 24.9-45.6 0-30-24.4-54.4-54.4-54.4s-54.4 24.4-54.4 54.4c0 18.5 9.6 35.9 25.1 45.8z"/></svg>