<svg xmlns="http://www.w3.org/2000/svg" viewBox="0 0 1024 1024"><path d="M392 752h240v72H392zm0-168h240v72H392zm496-336H768V136c0-39.8-32.2-72-72-72H328c-39.8 0-72 32.2-72 72v112H136c-39.8 0-72 32.2-72 72v304c0 39.8 32.2 72 72 72h120v192c0 39.8 32.2 72 72 72h368c39.8 0 72-32.2 72-72V696h120c39.8 0 72-32.2 72-72V320c0-39.8-32.2-72-72-72zM328 137c0-.6.4-1 1-1h366c.5 0 1 .5 1 1v110c0 .6-.4 1-1 1H329c-.5 0-1-.5-1-1V137zm368 751H328V520h368v368zm192-264H768V520c0-39.8-32.2-72-72-72H328c-39.8 0-72 32.2-72 72v104H136V320h752v304zM784 388a36 36 0 1 1 72 0 36 36 0 1 1-72 0z"/></svg>