<svg xmlns="http://www.w3.org/2000/svg" viewBox="0 0 1024 1024"><path d="M512 0C229.2 0 0 229.2 0 512s229.2 512 512 512 512-229.2 512-512S794.8 0 512 0zm311.1 823.1c-40.4 40.4-87.5 72.2-139.9 94.3C629 940.4 571.4 952 512 952s-117-11.6-171.2-34.5c-52.4-22.2-99.4-53.9-139.9-94.3-40.4-40.4-72.2-87.5-94.3-139.9C83.6 629 72 571.4 72 512s11.6-117 34.5-171.2c22.2-52.4 53.9-99.4 94.3-139.9 40.4-40.4 87.5-72.2 139.9-94.3C395 83.6 452.6 72 512 72s117 11.6 171.2 34.5c52.4 22.2 99.4 53.9 139.9 94.3 40.4 40.4 72.2 87.5 94.3 139.9C940.4 395 952 452.6 952 512s-11.6 117-34.5 171.2c-22.2 52.4-53.9 99.5-94.4 139.9zM506.8 663.9c-1.2 0-2.4-.1-3.6-.2-19.8-1.9-34.2-19.6-32.3-39.4 4.9-49.9 41.5-90.2 81.8-130.5 64.5-64.5 65.6-85 66.7-106.7 1.3-25.3-8-49.8-26.4-69.1-20.9-22-50.5-34.6-81.2-34.6h-.2c-59.1.1-107.3 48.3-107.3 107.5 0 19.9-16.1 36-36 36s-36-16.1-36-36c0-47.9 18.6-92.9 52.4-126.8 33.8-33.9 78.8-52.6 126.7-52.7 50.5-.1 99.3 20.7 133.8 57 32.1 33.8 48.5 77.3 46.1 122.5-2.5 46.3-16.7 82.8-87.7 153.8-36 36-58.7 63-61 86.7-1.8 18.6-17.5 32.5-35.8 32.5zM462.2 769.2a43.3 43.3 0 1 0 86.6 0 43.3 43.3 0 1 0-86.6 0z"/></svg>