<svg xmlns="http://www.w3.org/2000/svg" viewBox="0 0 1024 1024"><path d="M760.003 0h-496c-39.8 0-72 32.2-72 72v880c0 39.8 32.2 72 72 72h464c39.8 0 104-32.2 104-72V72c0-39.8-32.2-72-72-72zm-218 960h-60c-19.9 0-34-14.3-34-32s14.1-32 34-32h60c19.9 0 34 14.3 34 32s-14.1 32-34 32zm218-129h-496V127h496v704zM79.903 26.1l-43.8 9.6c-25.3 16.1-40 46-35.2 77.6l127.2 831.8L53.203 92c-2.1-25.9 8.5-49.8 26.7-65.9zm50.1-15.7c-26.5 13.9-43.9 42.4-41.9 74.3l54 839.7V68c0-26.1 12.8-49 32.2-63.4l-44.3 5.8zm858 25.3l-43.8-9.6c18.2 16 28.8 40 26.5 65.9l-74.9 853.2 127.2-831.8c5-31.7-9.7-61.4-35-77.7zm-52 48.8c1.9-31.9-15.3-60.4-41.9-74.3l-44.4-5.7c19.4 14.5 32.2 37.4 32.2 63.5v856.5l54.1-840z"/></svg>