<svg xmlns="http://www.w3.org/2000/svg" viewBox="0 0 1024 1024"><path d="M962.8 605.1c0-1.2-.1-2.3-.2-3.5-.5-5.8-1.8-11.6-3.7-17.2-2.3-6.7-5.6-13.2-10-19.2-2.2-3-4.6-5.9-7.3-8.6L463.2 73.8c-2.8-2.9-6-5.4-9.4-7.4-7.5-4.5-16.1-7-25.1-7H138.1c-41.2 0-74.6 33-74.6 73.8v298.2c0 3.2.3 6.3.9 9.3.2.8.3 1.5.5 2.3.6 2.3 1.3 4.5 2.2 6.6.3.7.6 1.4 1 2.1 2.3 4.9 5.5 9.4 9.5 13.4l477.8 472c5.5 5.4 11.6 9.8 18.1 13.2 10.8 5.6 22.8 8.4 34.7 8.4 9.6 0 19.1-1.8 28.1-5.4 9-3.6 17.4-9 24.7-16.2l280-276.8c1.7-1.7 3.3-3.4 4.8-5.2 2-2.4 3.8-4.9 5.4-7.4 1.1-1.7 2.1-3.4 3-5.1.9-1.7 1.7-3.3 2.4-5 .4-.9.8-1.8 1.1-2.7 3.9-9.6 5.5-19.7 5.1-29.8zM264.4 335.6c-39.3 0-71.2-31.9-71.2-71.2s31.9-71.2 71.2-71.2 71.2 31.9 71.2 71.2-31.9 71.2-71.2 71.2z"/></svg>